<svg width="36" height="30" viewBox="0 0 36 30" fill="none" xmlns="http://www.w3.org/2000/svg">
    <path d="M3.30661 17.8923C2.43554 16.4786 2 15.7717 2 15C2 14.2283 2.43554 13.5214 3.30662 12.1077L5.52958 8.5L7.87885 4.95812C8.79942 3.57022 9.25971 2.87627 10 2.4904C10.7403 2.10453 11.6361 2.09163 13.4278 2.06584L18 2L22.5722 2.06584C24.3639 2.09163 25.2597 2.10453 26 2.4904C26.7403 2.87626 27.2006 3.57022 28.1212 4.95812L30.4704 8.5L32.6934 12.1077C33.5645 13.5214 34 14.2283 34 15C34 15.7717 33.5645 16.4786 32.6934 17.8923L30.4704 21.5L28.1212 25.0419C27.2006 26.4298 26.7403 27.1237 26 27.5096C25.2597 27.8955 24.3639 27.9084 22.5722 27.9342L18 28L13.4278 27.9342C11.6361 27.9084 10.7403 27.8955 10 27.5096C9.25971 27.1237 8.79942 26.4298 7.87885 25.0419L5.52958 21.5L3.30661 17.8923Z" stroke="#0D05F2" stroke-width="3.2"/>
    <path d="M22.9419 15C22.9419 17.4644 20.7289 19.4622 17.9992 19.4622C15.2694 19.4622 13.0565 17.4644 13.0565 15C13.0565 12.5355 15.2694 10.5377 17.9992 10.5377C20.7289 10.5377 22.9419 12.5355 22.9419 15Z" stroke="#0D05F2" stroke-width="3.2"/>
</svg>
