<svg width="32" height="32" viewBox="0 0 32 32" fill="none" xmlns="http://www.w3.org/2000/svg">
    <path fill-rule="evenodd" clip-rule="evenodd" d="M25.0335 0.230058C25.9639 0.0142834 27.2335 -0.185015 28.5031 0.299652C29.9754 0.861705 31.1383 2.02463 31.7003 3.49691C32.185 4.76648 31.9857 6.03615 31.7699 6.96649C31.5513 7.90936 31.1668 9.06263 30.7349 10.3579L25.8914 24.8883C25.8643 24.9697 25.8377 25.0495 25.8117 25.1279C25.5037 26.0528 25.2667 26.7649 25.0646 27.1992C22.0866 33.6003 12.9857 33.6003 10.0077 27.1992C9.80564 26.7649 9.5686 26.0528 9.26068 25.1279C9.2346 25.0495 9.20801 24.9697 9.18089 24.8883C9.09561 24.6325 9.07786 24.581 9.06195 24.5393C8.78096 23.8016 8.19838 23.219 7.46073 22.9381C7.41897 22.9221 7.36754 22.9044 7.1117 22.8191C7.03035 22.792 6.95048 22.7654 6.87215 22.7393C5.94717 22.4314 5.23513 22.1944 4.80084 21.9923C-1.60028 19.0143 -1.60028 9.91337 4.80084 6.93536C5.23513 6.73331 5.94717 6.49627 6.87213 6.18835C6.95047 6.16227 7.03034 6.13568 7.1117 6.10856L21.642 1.26511C22.9373 0.833256 24.0906 0.448743 25.0335 0.230058ZM26.2842 5.62248C25.6269 5.77493 24.7251 6.07241 23.2729 6.55649L8.8622 11.3601C8.277 11.5551 7.86424 11.6928 7.56083 11.7983C7.41086 11.8505 7.30349 11.8893 7.22603 11.9188C7.16027 11.9438 7.13252 11.9559 7.13252 11.9559C5.00323 12.9496 5.00324 15.978 7.13254 16.9718C7.13254 16.9718 7.16057 16.984 7.22603 17.0089C7.30349 17.0384 7.41086 17.0772 7.56083 17.1294C7.86424 17.2349 8.277 17.3726 8.8622 17.5676L8.90223 17.581C9.09605 17.6455 9.26592 17.7021 9.43124 17.7651C11.6442 18.6081 13.3919 20.3558 14.2349 22.5688C14.2979 22.7341 14.3545 22.904 14.4191 23.0978L14.4324 23.1378C14.6274 23.723 14.7651 24.1358 14.8706 24.4392C14.9228 24.5891 14.9616 24.6965 14.9911 24.774C15.0161 24.8395 15.0282 24.8675 15.0282 24.8675C16.022 26.9968 19.0504 26.9968 20.0441 24.8675C20.0441 24.8675 20.0563 24.8395 20.0812 24.774C20.1107 24.6965 20.1495 24.5891 20.2017 24.4392C20.3072 24.1358 20.4449 23.723 20.6399 23.1378L25.4435 8.72711C25.9276 7.27488 26.2251 6.3731 26.3775 5.71582C26.3875 5.67284 26.3963 5.63291 26.4041 5.5959C26.3671 5.6037 26.3272 5.61252 26.2842 5.62248Z" fill="#0D05F2"/>
</svg>
