<svg width="32" height="32" viewBox="0 0 32 32" fill="none" xmlns="http://www.w3.org/2000/svg">
    <path d="M14.937 0.425416C15.5432 -0.141805 16.4568 -0.141805 17.063 0.425416L31.463 13.8991C32.1234 14.5171 32.1829 15.5816 31.5958 16.2768C31.0088 16.972 29.9975 17.0347 29.337 16.4167L28.8 15.9142V28.6316C28.8 30.4919 27.3673 32 25.6 32H6.40001C4.6327 32 3.20001 30.4919 3.20001 28.6316V15.9142L2.663 16.4167C2.00254 17.0347 0.99123 16.972 0.404162 16.2768C-0.182906 15.5816 -0.123417 14.5171 0.537034 13.8991L14.937 0.425416ZM6.40001 12.9201V28.6316H11.2V20.2105C11.2 19.2804 11.9163 18.5263 12.8 18.5263H19.2C20.0837 18.5263 20.8 19.2804 20.8 20.2105V28.6316H25.6V12.9201L16 3.93761L6.40001 12.9201ZM17.6 28.6316V21.8947H14.4V28.6316H17.6Z" fill="#0D05F2"/>
</svg>
