<svg width="36" height="36" viewBox="0 0 36 36" fill="none" xmlns="http://www.w3.org/2000/svg">
    <path d="M15.2149 9.55364L16.007 8.04001L15.2149 9.55364ZM25.002 26.5053L23.2951 26.4345L25.002 26.5053ZM23.7191 27.246L22.9271 28.7596L22.9271 28.7596L23.7191 27.246ZM14.7327 21.1331L16.2122 20.279L14.7327 21.1331ZM13.9321 10.2943L15.6389 10.3652L15.6389 10.3652L13.9321 10.2943ZM14.4228 11.0673C15.6428 11.7056 17.5812 12.7564 19.331 13.8604C20.2076 14.4135 21.0084 14.9622 21.6383 15.4646C22.3141 16.0034 22.6314 16.3641 22.7218 16.5206L25.6807 14.8123C25.2481 14.063 24.4896 13.3683 23.7686 12.7933C23.0016 12.1817 22.0846 11.5579 21.1542 10.9709C19.2902 9.79476 17.2584 8.69489 16.007 8.04001L14.4228 11.0673ZM22.7218 16.5206C22.8122 16.6772 22.9659 17.1324 23.0947 17.987C23.2147 18.7837 23.2895 19.7516 23.3302 20.7873C23.4115 22.8547 23.3522 25.0588 23.2951 26.4345L26.7088 26.5762C26.7674 25.165 26.8308 22.8554 26.7443 20.6531C26.7011 19.5538 26.6194 18.4478 26.4732 17.4778C26.3357 16.5658 26.1133 15.5616 25.6807 14.8123L22.7218 16.5206ZM23.2951 26.4345C23.3201 25.8329 23.9777 25.4532 24.5112 25.7324L22.9271 28.7596C24.6136 29.6421 26.6299 28.4781 26.7088 26.5762L23.2951 26.4345ZM24.5112 25.7324C23.2912 25.094 21.3528 24.0433 19.603 22.9392C18.7264 22.3861 17.9256 21.8374 17.2957 21.3351C16.6199 20.7962 16.3026 20.4355 16.2122 20.279L13.2533 21.9873C13.6859 22.7366 14.4444 23.4313 15.1655 24.0063C15.9324 24.618 16.8494 25.2417 17.7798 25.8287C19.6438 27.0049 21.6756 28.1047 22.9271 28.7596L24.5112 25.7324ZM16.2122 20.279C16.1218 20.1224 15.9682 19.6673 15.8394 18.8126C15.7193 18.0159 15.6445 17.048 15.6038 16.0124C15.5226 13.9449 15.5818 11.7408 15.6389 10.3652L12.2252 10.2234C12.1666 11.6347 12.1032 13.9442 12.1898 16.1465C12.233 17.2458 12.3146 18.3518 12.4608 19.3218C12.5983 20.2338 12.8207 21.238 13.2533 21.9873L16.2122 20.279ZM15.6389 10.3652C15.6139 10.9667 14.9563 11.3464 14.4228 11.0673L16.007 8.04001C14.3204 7.15746 12.3042 8.32154 12.2252 10.2234L15.6389 10.3652ZM32.2917 18C32.2917 25.8931 25.8931 32.2917 18 32.2917V35.7083C27.78 35.7083 35.7083 27.78 35.7083 18H32.2917ZM18 32.2917C10.1069 32.2917 3.70833 25.8931 3.70833 18H0.291667C0.291667 27.78 8.21996 35.7083 18 35.7083V32.2917ZM3.70833 18C3.70833 10.1069 10.1069 3.70833 18 3.70833V0.291667C8.21996 0.291667 0.291667 8.21996 0.291667 18H3.70833ZM18 3.70833C25.8931 3.70833 32.2917 10.1069 32.2917 18H35.7083C35.7083 8.21996 27.78 0.291667 18 0.291667V3.70833Z" fill="#0D05F2"/>
</svg>
