<svg width="32" height="32" viewBox="0 0 32 32" fill="none" xmlns="http://www.w3.org/2000/svg">
    <path d="M6.99382e-08 3.55556C6.99382e-08 1.59188 1.43269 0 3.2 0H28.8C30.5673 0 32 1.59188 32 3.55556V23.1111C32 25.0748 30.5673 26.6667 28.8 26.6667H3.2C1.43269 26.6667 6.99382e-08 25.0748 6.99382e-08 23.1111V3.55556ZM28.8 3.55556H3.2V23.1111H28.8V3.55556Z" fill="#0D05F2"/>
    <path d="M32 30.2222C32 31.2041 31.2837 32 30.4 32H1.6C0.716345 32 -3.86258e-08 31.2041 0 30.2222C3.86258e-08 29.2404 0.716345 28.4444 1.6 28.4444L30.4 28.4444C31.2837 28.4444 32 29.2404 32 30.2222Z" fill="#0D05F2"/>
</svg>
