<svg width="36" height="36" viewBox="0 0 36 36" fill="none" xmlns="http://www.w3.org/2000/svg">
    <path d="M18 34C26.8366 34 34 26.8366 34 18C34 9.16344 26.8366 2 18 2M18 34C9.16344 34 2 26.8366 2 18C2 9.16344 9.16344 2 18 2M18 34V2M31.144 8.41268C29.6965 10.107 27.7737 11.4972 25.5344 12.4684C23.295 13.4396 20.8034 13.964 18.2653 13.9982C15.7272 14.0323 13.2156 13.5754 10.9378 12.6651C8.66004 11.7547 6.68154 10.4171 5.16576 8.76271M31.144 27.5872C29.6965 25.8929 27.7737 24.5027 25.5344 23.5315C23.295 22.5603 20.8034 22.0359 18.2653 22.0017C15.7272 21.9675 13.2156 22.4245 10.9378 23.3348C8.66004 24.2452 6.68154 25.5828 5.16576 27.2372" stroke="#0D05F2" stroke-width="3.75"/>
</svg>
