<svg width="60" height="60" viewBox="0 0 60 60" fill="none" xmlns="http://www.w3.org/2000/svg">
    <path d="M7.5 30C7.5 17.5736 17.5736 7.5 30 7.5C42.4264 7.5 52.5 17.5736 52.5 30C52.5 42.4264 42.4264 52.5 30 52.5C17.5736 52.5 7.5 42.4264 7.5 30Z" fill="#323232" fill-opacity="0.67"/>
    <circle cx="29.9999" cy="25" r="10" fill="white"/>
    <path fill-rule="evenodd" clip-rule="evenodd" d="M45.5525 45.6154C45.698 45.8562 45.6536 46.1647 45.4491 46.3579C41.4189 50.1655 35.9821 52.5 30.0001 52.5C24.0184 52.5 18.5818 50.1658 14.5517 46.3585C14.3472 46.1653 14.3028 45.8569 14.4482 45.616C17.3587 40.795 23.2307 37.5 30.0006 37.5C36.7701 37.5 42.642 40.7947 45.5525 45.6154Z" fill="white"/>
</svg>
